#!OML:ASF X:\für Bonn\!DataBase\2005_08_12_Daniel\c3d\Daniel.ASF
:FULLY-SPECIFIED
:DEGREES
96
root -3.37216 7.48115 -2.77341 318.837 -79.5664 -350.148
lowerback 55.4127 -4.47352 0.656567
upperback 4.30073 -6.99122 -2.70753
thorax -17.0117 -3.44992 0.371747
lowerneck 3.15859 1.51864 -4.69647
upperneck -1.27632 1.87365 2.0145
head -0.997749 0.934331 1.3877
rclavicle 5.46658e-015 1.90833e-014
rhumerus 73.0971 -14.7094 -135.044
rradius 9.84607
rwrist 105.49
rhand -16.765 16.86
rfingers 7.12502
rthumb 9.46205 -12.9076
lclavicle 5.46658e-015 1.90833e-014
lhumerus 70.9404 3.77784 101.05
lradius 8.28977
lwrist -74.5332
lhand -15.5112 1.66539
lfingers 7.12502
lthumb 10.6717 31.3744
rfemur 26.4102 -51.3309 -132.335
rtibia 149.34
rfoot -50.3344 76.8951
rtoes 3.92031
lfemur -50.4773 57.2034 29.5155
ltibia 147.243
lfoot -7.64182 -62.8232
ltoes 11.5435
97
root -3.35425 7.62815 -2.76944 319.071 -79.6113 -349.923
lowerback 54.9235 -4.44217 0.612806
upperback 4.25018 -6.95621 -2.70641
thorax -17.0204 -3.42495 0.368321
lowerneck 3.09699 1.51589 -4.66128
upperneck -1.13686 1.87285 1.98106
head -0.942147 0.932949 1.37093
rclavicle 1.98288e-014 3.33958e-014
rhumerus 73.0849 -14.6548 -135.097
rradius 9.77443
rwrist 105.576
rhand -16.6386 16.7604
rfingers 7.12502
rthumb 9.58403 -13.0016
lclavicle 1.98288e-014 3.33958e-014
lhumerus 71.2111 3.67944 101.144
lradius 8.14343
lwrist -74.447
lhand -15.6123 1.78972
lfingers 7.12502
lthumb 10.5741 31.5037
rfemur 26.1869 -52.6695 -129.499
rtibia 148.063
rfoot -45.1889 77.0021
rtoes 4.0894
lfemur -51.5013 55.6257 26.5876
ltibia 146.036
lfoot -7.04417 -61.9391
ltoes 11.9452
98
root -3.33835 7.77766 -2.76495 319.213 -79.6565 -349.626
lowerback 54.4131 -4.3939 0.54539
upperback 4.22169 -6.91375 -2.69423
thorax -16.9933 -3.39805 0.382612
lowerneck 2.94766 1.50822 -4.60711
upperneck -0.934036 1.86942 1.91027
head -0.850819 0.930298 1.33934
rclavicle -3.32467e-014 1.94809e-014
rhumerus 73.0473 -14.5903 -135.131
rradius 9.75361
rwrist 105.724
rhand -16.6238 16.7188
rfingers 7.12502
rthumb 9.5983 -13.0425
lclavicle -3.32467e-014 1.94809e-014
lhumerus 71.494 3.575 101.26
lradius 7.98925
lwrist -74.6348
lhand -15.8756 1.94787
lfingers 7.12502
lthumb 10.3202 31.6746
rfemur 25.3508 -54.0916 -126.03
rtibia 146.738
rfoot -38.3522 77.108
rtoes 4.45688
lfemur -52.2229 54.0405 23.9488
ltibia 144.796
lfoot -6.70425 -61.067
ltoes 12.2123
99
root -3.32292 7.93027 -2.76057 319.37 -79.6823 -349.368
lowerback 53.9353 -4.35311 0.470907
upperback 4.17514 -6.88236 -2.67606
thorax -16.9878 -3.37408 0.41373
lowerneck 2.8681 1.5135 -4.57248
upperneck -0.797598 1.87956 1.84386
head -0.79332 0.934755 1.31222
rclavicle 1.96797e-014 -2.66371e-014
rhumerus 73.0026 -14.5395 -135.152
rradius 9.71438
rwrist 105.901
rhand -16.704 16.6532
rfingers 7.12502
rthumb 9.5209 -13.1117
lclavicle 1.96797e-014 -2.66371e-014
lhumerus 71.7059 3.53385 101.362
lradius 7.89467
lwrist -74.9536
lhand -16.2895 2.10254
lfingers 7.12502
lthumb 9.92087 31.8488
rfemur 23.8601 -55.5401 -121.844
rtibia 145.362
rfoot -30.0319 77.0133
rtoes 4.93382
lfemur -52.8718 52.3134 21.3812
ltibia 143.528
lfoot -6.34504 -60.1058
ltoes 12.5118
100
root -3.30928 8.08562 -2.75636 319.522 -79.6946 -349.108
lowerback 53.4168 -4.32353 0.410644
upperback 4.15171 -6.86074 -2.68094
thorax -16.9509 -3.35667 0.4155
lowerneck 2.86285 1.51205 -4.58837
upperneck -0.746987 1.87735 1.86324
head -0.77702 0.932961 1.32121
rclavicle 1.99779e-014 -1.31198e-014
rhumerus 72.9399 -14.5307 -135.192
rradius 9.73262
rwrist 106.134
rhand -16.846 16.6653
rfingers 7.12502
rthumb 9.38396 -13.1058
lclavicle 1.99779e-014 -1.31198e-014
lhumerus 71.8789 3.45591 101.45
lradius 7.86425
lwrist -75.4536
lhand -16.6599 2.25545
lfingers 7.12502
lthumb 9.5635 32.0184
rfemur 21.6957 -56.9432 -116.99
rtibia 143.963
rfoot -20.8087 76.5588
rtoes 5.67648
lfemur -53.3507 50.5451 18.9727
ltibia 142.225
lfoot -5.97877 -59.1316
ltoes 12.8516
101
root -3.29689 8.24413 -2.75189 319.773 -79.7239 -348.989
lowerback 52.9314 -4.30343 0.374134
upperback 4.11015 -6.83345 -2.67145
thorax -16.9366 -3.33711 0.420964
lowerneck 2.93911 1.5219 -4.62171
upperneck -0.721798 1.88502 1.8547
head -0.782739 0.936272 1.32384
rclavicle 2.27111e-014 3.10104e-014
rhumerus 72.8432 -14.5217 -135.211
rradius 9.75798
rwrist 106.368
rhand -16.9831 16.6304
rfingers 7.12502
rthumb 9.25169 -13.1466
lclavicle 2.27111e-014 3.10104e-014
lhumerus 71.9231 3.41792 101.549
lradius 7.97648
lwrist -76.0036
lhand -16.9259 2.37336
lfingers 7.12502
lthumb 9.3068 32.1479
rfemur 18.7537 -58.2338 -111.32
rtibia 142.543
rfoot -12.2799 75.6002
rtoes 6.2312
lfemur -53.5697 48.7493 16.8662
ltibia 140.884
lfoot -5.61973 -58.1802
ltoes 13.2055
102
root -3.2851 8.4069 -2.74747 319.911 -79.7374 -348.727
lowerback 52.3914 -4.27059 0.296288
upperback 4.08872 -6.81442 -2.66416
thorax -16.8851 -3.32058 0.444758
lowerneck 3.0139 1.54546 -4.70926
upperneck -0.735208 1.91075 1.93212
head -0.802998 0.948408 1.36307
rclavicle 7.15625e-015 2.3059e-014
rhumerus 72.7176 -14.5143 -135.231
rradius 9.83419
rwrist 106.596
rhand -17.1097 16.6357
rfingers 7.12502
rthumb 9.12947 -13.1467
lclavicle 7.15625e-015 2.3059e-014
lhumerus 71.9413 3.39219 101.642
lradius 8.16405
lwrist -76.5221
lhand -17.0149 2.36333
lfingers 7.12502
lthumb 9.22101 32.1417
rfemur 15.1256 -59.3912 -105.025
rtibia 141.124
rfoot -5.47678 74.1777
rtoes 6.74416
lfemur -53.7762 46.8806 14.7385
ltibia 139.508
lfoot -5.26669 -57.1429
ltoes 13.6301
103
root -3.27406 8.57223 -2.74319 320.087 -79.7571 -348.512
lowerback 51.8565 -4.24551 0.239578
upperback 4.05668 -6.79269 -2.66241
thorax -16.846 -3.30334 0.451618
lowerneck 3.10978 1.55669 -4.76721
upperneck -0.765619 1.91889 1.94636
head -0.83026 0.952344 1.37721
rclavicle 1.85367e-014 4.77083e-015
rhumerus 72.5833 -14.5339 -135.249
rradius 9.92372
rwrist 106.852
rhand -17.1583 16.6255
rfingers 7.12502
rthumb 9.08263 -13.159
lclavicle 1.85367e-014 4.77083e-015
lhumerus 71.9338 3.35723 101.733
lradius 8.32575
lwrist -76.9697
lhand -16.8836 2.30451
lfingers 7.12502
lthumb 9.34764 32.0773
rfemur 10.7955 -60.2812 -98.0682
rtibia 139.694
rfoot 0.335662 72.4381
rtoes 7.15908
lfemur -53.8381 44.9722 12.7568
ltibia 138.098
lfoot -4.9473 -56.0789
ltoes 14.006
104
root -3.2635 8.73892 -2.73865 320.269 -79.7679 -348.298
lowerback 51.3133 -4.22093 0.180937
upperback 4.01528 -6.77029 -2.65629
thorax -16.8129 -3.2851 0.463836
lowerneck 3.18952 1.56165 -4.81619
upperneck -0.754181 1.91944 1.95885
head -0.841239 0.952061 1.38943
rclavicle 2.95692e-014 1.86858e-014
rhumerus 72.4162 -14.5878 -135.248
rradius 10.0373
rwrist 107.106
rhand -17.2088 16.6282
rfingers 7.12502
rthumb 9.03388 -13.1583
lclavicle 2.95692e-014 1.86858e-014
lhumerus 71.9106 3.33501 101.83
lradius 8.44562
lwrist -77.316
lhand -16.5954 2.08723
lfingers 7.12502
lthumb 9.62573 31.8473
rfemur 6.05555 -60.8093 -90.7675
rtibia 138.265
rfoot 4.48483 70.5082
rtoes 7.59805
lfemur -53.8111 43.0529 10.8926
ltibia 136.665
lfoot -4.68797 -55.035
ltoes 14.2835
105
root -3.25344 8.90932 -2.73411 320.477 -79.7867 -348.116
lowerback 50.7702 -4.20218 0.131949
upperback 3.97312 -6.75049 -2.65564
thorax -16.7786 -3.26867 0.46656
lowerneck 3.25353 1.56611 -4.86739
upperneck -0.748645 1.91999 1.9695
head -0.851391 0.951951 1.40153
rclavicle -2.48481e-016 -7.95139e-015
rhumerus 72.0821 -14.4697 -134.659
rradius 10.1902
rwrist 106.66
rhand -17.0876 16.6173
rfingers 7.12502
rthumb 9.15083 -13.1642
lclavicle -2.48481e-016 -7.95139e-015
lhumerus 71.8826 3.30085 101.921
lradius 8.52582
lwrist -77.5032
lhand -16.2112 1.78859
lfingers 7.12502
lthumb 9.99639 31.5312
rfemur 0.863967 -60.9391 -83.004
rtibia 136.809
rfoot 7.33459 68.4269
rtoes 7.86507
lfemur -53.6798 41.1195 9.13768
ltibia 135.196
lfoot -4.54873 -53.9265
ltoes 14.5727
106
root -3.24318 9.08114 -2.72928 320.648 -79.8047 -347.897
lowerback 50.2197 -4.17684 0.0756122
upperback 3.93863 -6.72562 -2.64948
thorax -16.7287 -3.25068 0.475456
lowerneck 3.28961 1.56629 -4.92325
upperneck -0.739178 1.91606 1.98089
head -0.855441 0.949706 1.4149
rclavicle 2.99668e-014 2.10712e-014
rhumerus 71.7073 -14.2892 -133.843
rradius 10.3241
rwrist 105.995
rhand -16.9423 16.5214
rfingers 7.12502
rthumb 9.29098 -13.2538
lclavicle 2.99668e-014 2.10712e-014
lhumerus 71.8729 3.28715 102.014
lradius 8.56472
lwrist -77.6155
lhand -15.8162 1.40837
lfingers 7.12502
lthumb 10.3775 31.1323
rfemur -4.4277 -60.6714 -75.2001
rtibia 135.338
rfoot 9.5394 66.2197
rtoes 8.19665
lfemur -53.4573 39.2193 7.48565
ltibia 133.708
lfoot -4.58445 -52.8455
ltoes 14.8078
